<?xml version="1.0" encoding="UTF-8" standalone="no"?>
<!-- Created with Inkscape (http://www.inkscape.org/) -->

<svg
   xmlns:dc="http://purl.org/dc/elements/1.1/"
   xmlns:cc="http://creativecommons.org/ns#"
   xmlns:rdf="http://www.w3.org/1999/02/22-rdf-syntax-ns#"
   xmlns:svg="http://www.w3.org/2000/svg"
   xmlns="http://www.w3.org/2000/svg"
   xmlns:sodipodi="http://sodipodi.sourceforge.net/DTD/sodipodi-0.dtd"
   xmlns:inkscape="http://www.inkscape.org/namespaces/inkscape"
   width="20.477032mm"
   height="20.877935mm"
   viewBox="0 0 20.477032 20.877935"
   version="1.1"
   id="svg8"
   inkscape:version="0.92.2 (5c3e80d, 2017-08-06)"
   sodipodi:docname="ed-goods-chemics.svg">
  <defs
     id="defs2" />
  <sodipodi:namedview
     id="base"
     pagecolor="#ffffff"
     bordercolor="#666666"
     borderopacity="1.0"
     inkscape:pageopacity="0"
     inkscape:pageshadow="2"
     inkscape:zoom="3.959798"
     inkscape:cx="90.502137"
     inkscape:cy="12.326592"
     inkscape:document-units="mm"
     inkscape:current-layer="layer1"
     showgrid="false"
     fit-margin-top="0"
     fit-margin-left="0"
     fit-margin-right="0"
     fit-margin-bottom="0"
     inkscape:window-width="1920"
     inkscape:window-height="1018"
     inkscape:window-x="-8"
     inkscape:window-y="-8"
     inkscape:window-maximized="1"
     inkscape:pagecheckerboard="true" />
  <metadata
     id="metadata5">
    <rdf:RDF>
      <cc:Work
         rdf:about="">
        <dc:format>image/svg+xml</dc:format>
        <dc:type
           rdf:resource="http://purl.org/dc/dcmitype/StillImage" />
        <dc:title></dc:title>
      </cc:Work>
    </rdf:RDF>
  </metadata>
  <g
     inkscape:label="Layer 1"
     inkscape:groupmode="layer"
     id="layer1"
     transform="translate(-160.02801,-230.41024)">
    <rect
       style="opacity:0.97000002;fill:none;fill-opacity:1;stroke:#955a07;stroke-width:0.36500001;stroke-linejoin:round;stroke-miterlimit:4;stroke-dasharray:none;stroke-opacity:1"
       id="rect826"
       width="20.112032"
       height="20.512936"
       x="160.21051"
       y="230.59274" />
    <path
       style="opacity:0.97000002;fill:none;fill-opacity:1;stroke:#955a07;stroke-width:0.36500001;stroke-linejoin:round;stroke-miterlimit:4;stroke-dasharray:none;stroke-opacity:1"
       id="path828"
       sodipodi:type="arc"
       sodipodi:cx="176.99837"
       sodipodi:cy="236.52281"
       sodipodi:rx="1.0857824"
       sodipodi:ry="1.0857824"
       sodipodi:start="0"
       sodipodi:end="6.2798343"
       sodipodi:open="true"
       d="m 178.08415,236.52281 a 1.0857824,1.0857824 0 0 1 -1.08487,1.08578 1.0857824,1.0857824 0 0 1 -1.08669,-1.08396 1.0857824,1.0857824 0 0 1 1.08305,-1.0876 1.0857824,1.0857824 0 0 1 1.0885,1.08214" />
    <path
       style="opacity:0.97000002;fill:none;fill-opacity:1;stroke:#955a07;stroke-width:0.36500001;stroke-linejoin:round;stroke-miterlimit:4;stroke-dasharray:none;stroke-opacity:1"
       id="path828-5"
       sodipodi:type="arc"
       sodipodi:cx="173.70763"
       sodipodi:cy="238.64424"
       sodipodi:rx="1.0857824"
       sodipodi:ry="1.0857824"
       sodipodi:start="0"
       sodipodi:end="6.2798343"
       sodipodi:open="true"
       d="m 174.79341,238.64424 a 1.0857824,1.0857824 0 0 1 -1.08487,1.08578 1.0857824,1.0857824 0 0 1 -1.08669,-1.08396 1.0857824,1.0857824 0 0 1 1.08305,-1.0876 1.0857824,1.0857824 0 0 1 1.0885,1.08214" />
    <path
       style="opacity:0.97000002;fill:none;fill-opacity:1;stroke:#955a07;stroke-width:0.36500001;stroke-linejoin:round;stroke-miterlimit:4;stroke-dasharray:none;stroke-opacity:1"
       id="path828-1"
       sodipodi:type="arc"
       sodipodi:cx="173.70764"
       sodipodi:cy="242.58649"
       sodipodi:rx="1.0857824"
       sodipodi:ry="1.0857824"
       sodipodi:start="0"
       sodipodi:end="6.2798343"
       sodipodi:open="true"
       d="m 174.79342,242.58649 a 1.0857824,1.0857824 0 0 1 -1.08487,1.08578 1.0857824,1.0857824 0 0 1 -1.08669,-1.08396 1.0857824,1.0857824 0 0 1 1.08305,-1.0876 1.0857824,1.0857824 0 0 1 1.08851,1.08214" />
    <path
       style="opacity:0.97000002;fill:none;fill-opacity:1;stroke:#955a07;stroke-width:0.36500001;stroke-linejoin:round;stroke-miterlimit:4;stroke-dasharray:none;stroke-opacity:1"
       id="path828-6"
       sodipodi:type="arc"
       sodipodi:cx="170.19971"
       sodipodi:cy="244.55759"
       sodipodi:rx="1.0857824"
       sodipodi:ry="1.0857824"
       sodipodi:start="0"
       sodipodi:end="6.2798343"
       sodipodi:open="true"
       d="m 171.28549,244.55759 a 1.0857824,1.0857824 0 0 1 -1.08487,1.08578 1.0857824,1.0857824 0 0 1 -1.08669,-1.08396 1.0857824,1.0857824 0 0 1 1.08305,-1.0876 1.0857824,1.0857824 0 0 1 1.0885,1.08214" />
    <path
       style="opacity:0.97000002;fill:none;fill-opacity:1;stroke:#955a07;stroke-width:0.36500001;stroke-linejoin:round;stroke-miterlimit:4;stroke-dasharray:none;stroke-opacity:1"
       id="path828-17"
       sodipodi:type="arc"
       sodipodi:cx="166.85884"
       sodipodi:cy="242.68671"
       sodipodi:rx="1.0857824"
       sodipodi:ry="1.0857824"
       sodipodi:start="0"
       sodipodi:end="6.2798343"
       sodipodi:open="true"
       d="m 167.94462,242.68671 a 1.0857824,1.0857824 0 0 1 -1.08487,1.08578 1.0857824,1.0857824 0 0 1 -1.08669,-1.08396 1.0857824,1.0857824 0 0 1 1.08305,-1.0876 1.0857824,1.0857824 0 0 1 1.08851,1.08214" />
    <path
       style="opacity:0.97000002;fill:none;fill-opacity:1;stroke:#955a07;stroke-width:0.36500001;stroke-linejoin:round;stroke-miterlimit:4;stroke-dasharray:none;stroke-opacity:1"
       id="path828-8"
       sodipodi:type="arc"
       sodipodi:cx="166.82544"
       sodipodi:cy="238.67766"
       sodipodi:rx="1.0857824"
       sodipodi:ry="1.0857824"
       sodipodi:start="0"
       sodipodi:end="6.2798343"
       sodipodi:open="true"
       d="m 167.91122,238.67766 a 1.0857824,1.0857824 0 0 1 -1.08487,1.08578 1.0857824,1.0857824 0 0 1 -1.08669,-1.08396 1.0857824,1.0857824 0 0 1 1.08305,-1.0876 1.0857824,1.0857824 0 0 1 1.08851,1.08214" />
    <path
       style="opacity:0.97000002;fill:none;fill-opacity:1;stroke:#955a07;stroke-width:0.36500001;stroke-linejoin:round;stroke-miterlimit:4;stroke-dasharray:none;stroke-opacity:1"
       id="path828-55"
       sodipodi:type="arc"
       sodipodi:cx="163.55139"
       sodipodi:cy="236.73996"
       sodipodi:rx="1.0857824"
       sodipodi:ry="1.0857824"
       sodipodi:start="0"
       sodipodi:end="6.2798343"
       sodipodi:open="true"
       d="m 164.63717,236.73996 a 1.0857824,1.0857824 0 0 1 -1.08487,1.08578 1.0857824,1.0857824 0 0 1 -1.08669,-1.08396 1.0857824,1.0857824 0 0 1 1.08305,-1.0876 1.0857824,1.0857824 0 0 1 1.08851,1.08214" />
    <path
       style="opacity:0.97000002;fill:none;fill-opacity:1;stroke:#955a07;stroke-width:0.36500001;stroke-linejoin:round;stroke-miterlimit:4;stroke-dasharray:none;stroke-opacity:1"
       id="path828-7"
       sodipodi:type="arc"
       sodipodi:cx="170.23312"
       sodipodi:cy="236.63972"
       sodipodi:rx="1.0857824"
       sodipodi:ry="1.0857824"
       sodipodi:start="0"
       sodipodi:end="6.2798343"
       sodipodi:open="true"
       d="m 171.31891,236.63972 a 1.0857824,1.0857824 0 0 1 -1.08488,1.08579 1.0857824,1.0857824 0 0 1 -1.08669,-1.08397 1.0857824,1.0857824 0 0 1 1.08305,-1.08759 1.0857824,1.0857824 0 0 1 1.08851,1.08214" />
    <path
       style="opacity:0.97000002;fill:none;fill-opacity:1;stroke:#955a07;stroke-width:0.36500001;stroke-linejoin:round;stroke-miterlimit:4;stroke-dasharray:none;stroke-opacity:1"
       id="path828-68"
       sodipodi:type="arc"
       sodipodi:cx="-171.20198"
       sodipodi:cy="233.56613"
       sodipodi:rx="1.0857824"
       sodipodi:ry="1.0857824"
       sodipodi:start="0.52647873"
       sodipodi:end="5.7282148"
       sodipodi:open="true"
       d="m -170.26323,234.11173 a 1.0857824,1.0857824 0 0 1 -1.21381,0.50477 1.0857824,1.0857824 0 0 1 -0.81061,-1.0349 1.0857824,1.0857824 0 0 1 0.7808,-1.05757 1.0857824,1.0857824 0 0 1 1.22769,0.46998"
       transform="scale(-1,1)" />
    <path
       style="opacity:0.97000002;fill:none;fill-opacity:1;stroke:#955a07;stroke-width:0.36500001;stroke-linejoin:round;stroke-miterlimit:4;stroke-dasharray:none;stroke-opacity:1"
       id="path828-2"
       sodipodi:type="arc"
       sodipodi:cx="169.29768"
       sodipodi:cy="233.59953"
       sodipodi:rx="1.0857824"
       sodipodi:ry="1.0857824"
       sodipodi:start="0"
       sodipodi:end="6.2798343"
       sodipodi:open="true"
       d="m 170.38347,233.59953 a 1.0857824,1.0857824 0 0 1 -1.08488,1.08579 1.0857824,1.0857824 0 0 1 -1.08669,-1.08397 1.0857824,1.0857824 0 0 1 1.08305,-1.0876 1.0857824,1.0857824 0 0 1 1.08851,1.08214" />
    <path
       style="opacity:0.97000002;fill:none;fill-opacity:1;stroke:#955a07;stroke-width:0.36500001;stroke-linejoin:round;stroke-miterlimit:4;stroke-dasharray:none;stroke-opacity:1"
       id="path828-22"
       sodipodi:type="arc"
       sodipodi:cx="170.19972"
       sodipodi:cy="248.19913"
       sodipodi:rx="1.0857824"
       sodipodi:ry="1.0857824"
       sodipodi:start="0"
       sodipodi:end="6.2798343"
       sodipodi:open="true"
       d="m 171.2855,248.19913 a 1.0857824,1.0857824 0 0 1 -1.08487,1.08578 1.0857824,1.0857824 0 0 1 -1.08669,-1.08396 1.0857824,1.0857824 0 0 1 1.08305,-1.0876 1.0857824,1.0857824 0 0 1 1.08851,1.08214" />
    <path
       style="opacity:0.97000002;fill:none;fill-opacity:1;stroke:#955a07;stroke-width:0.36500001;stroke-linejoin:round;stroke-miterlimit:4;stroke-dasharray:none;stroke-opacity:1"
       id="path828-21"
       sodipodi:type="arc"
       sodipodi:cx="-103.32509"
       sodipodi:cy="283.41681"
       sodipodi:rx="1.0857824"
       sodipodi:ry="1.0857824"
       sodipodi:start="0.44237498"
       sodipodi:end="5.7208086"
       sodipodi:open="true"
       d="m -102.34383,283.88162 a 1.0857824,1.0857824 0 0 1 -1.18758,0.60119 1.0857824,1.0857824 0 0 1 -0.87751,-1.00089 1.0857824,1.0857824 0 0 1 0.75138,-1.09874 1.0857824,1.0857824 0 0 1 1.25101,0.45469"
       transform="rotate(-55.670832)" />
    <path
       style="opacity:0.97000002;fill:none;fill-opacity:1;stroke:#955a07;stroke-width:0.36500001;stroke-linejoin:round;stroke-miterlimit:4;stroke-dasharray:none;stroke-opacity:1"
       id="path828-3"
       sodipodi:type="arc"
       sodipodi:cx="176.81464"
       sodipodi:cy="243.58873"
       sodipodi:rx="1.0857824"
       sodipodi:ry="1.0857824"
       sodipodi:start="0"
       sodipodi:end="6.2798343"
       sodipodi:open="true"
       d="m 177.90042,243.58873 a 1.0857824,1.0857824 0 0 1 -1.08487,1.08578 1.0857824,1.0857824 0 0 1 -1.08669,-1.08396 1.0857824,1.0857824 0 0 1 1.08305,-1.0876 1.0857824,1.0857824 0 0 1 1.0885,1.08214" />
    <path
       style="fill:none;stroke:#945a07;stroke-width:0.26458332px;stroke-linecap:butt;stroke-linejoin:miter;stroke-opacity:1"
       d="m 176.09,237.13718 -1.37016,0.96857 v 0"
       id="path911"
       inkscape:connector-curvature="0" />
    <path
       style="fill:none;stroke:#945a07;stroke-width:0.26458332px;stroke-linecap:butt;stroke-linejoin:miter;stroke-opacity:1"
       d="m 169.28643,237.13718 -1.41741,1.01582"
       id="path913"
       inkscape:connector-curvature="0" />
    <path
       style="fill:none;stroke:#945a07;stroke-width:0.26458332px;stroke-linecap:butt;stroke-linejoin:miter;stroke-opacity:1"
       d="m 172.75909,238.01126 -1.44104,-0.82683"
       id="path915"
       inkscape:connector-curvature="0" />
    <path
       style="fill:none;stroke:#945a07;stroke-width:0.26458332px;stroke-linecap:butt;stroke-linejoin:miter;stroke-opacity:1"
       d="m 165.88464,238.01126 -1.29929,-0.70871"
       id="path917"
       inkscape:connector-curvature="0" />
    <path
       style="fill:none;stroke:#945a07;stroke-width:0.26458332px;stroke-linecap:butt;stroke-linejoin:miter;stroke-opacity:1"
       d="m 166.80596,239.83027 v 1.72451"
       id="path919"
       inkscape:connector-curvature="0" />
    <path
       style="fill:none;stroke:#945a07;stroke-width:0.26458332px;stroke-linecap:butt;stroke-linejoin:miter;stroke-opacity:1"
       d="m 173.79852,239.78302 -0.0472,1.74814"
       id="path921"
       inkscape:connector-curvature="0" />
    <path
       style="fill:none;stroke:#945a07;stroke-width:0.26458332px;stroke-linecap:butt;stroke-linejoin:miter;stroke-opacity:1"
       d="m 172.78271,243.23205 -1.41741,0.85045"
       id="path923"
       inkscape:connector-curvature="0" />
    <path
       style="fill:none;stroke:#945a07;stroke-width:0.26458332px;stroke-linecap:butt;stroke-linejoin:miter;stroke-opacity:1"
       d="m 169.23918,244.01163 -1.34654,-0.75596"
       id="path925"
       inkscape:connector-curvature="0" />
    <path
       style="fill:none;stroke:#945a07;stroke-width:0.26458332px;stroke-linecap:butt;stroke-linejoin:miter;stroke-opacity:1"
       d="m 170.25499,245.66527 v 1.46466"
       id="path927"
       inkscape:connector-curvature="0" />
    <path
       style="fill:none;stroke:#945a07;stroke-width:0.26458332px;stroke-linecap:butt;stroke-linejoin:miter;stroke-opacity:1"
       d="m 175.75927,243.1848 -0.9466,-0.25364"
       id="path929"
       inkscape:connector-curvature="0" />
    <path
       style="fill:none;stroke:#945a07;stroke-width:0.26458332px;stroke-linecap:butt;stroke-linejoin:miter;stroke-opacity:1"
       d="m 175.02694,244.24786 -0.59059,-0.77957"
       id="path931"
       inkscape:connector-curvature="0" />
    <path
       style="fill:none;stroke:#945a07;stroke-width:0.26458332px;stroke-linecap:butt;stroke-linejoin:miter;stroke-opacity:1"
       d="m 166.30987,243.63365 -0.67327,0.67327 0.0591,0.0591"
       id="path933"
       inkscape:connector-curvature="0" />
    <path
       style="fill:none;stroke:#945a07;stroke-width:0.26458332px;stroke-linecap:butt;stroke-linejoin:miter;stroke-opacity:1"
       d="m 165.81377,242.99582 -1.11861,0.29973"
       id="path935"
       inkscape:connector-curvature="0" />
    <path
       style="opacity:0.97000002;fill:none;fill-opacity:1;stroke:#955a07;stroke-width:0.36500001;stroke-linejoin:round;stroke-miterlimit:4;stroke-dasharray:none;stroke-opacity:1"
       id="path828-55-9-5"
       sodipodi:type="arc"
       sodipodi:cx="-295.26944"
       sodipodi:cy="7.422296"
       sodipodi:rx="1.0857824"
       sodipodi:ry="1.0857824"
       sodipodi:start="0.44063086"
       sodipodi:end="5.8377607"
       sodipodi:open="true"
       d="m -294.28737,7.8853933 a 1.0857824,1.0857824 0 0 1 -1.21808,0.5967238 1.0857824,1.0857824 0 0 1 -0.84977,-1.0572186 1.0857824,1.0857824 0 0 1 0.84469,-1.06128 1.0857824,1.0857824 0 0 1 1.22093,0.5908779"
       transform="rotate(-122.46322)" />
    <path
       style="opacity:0.97000002;fill:none;fill-opacity:1;stroke:#955a07;stroke-width:0.36500001;stroke-linejoin:round;stroke-miterlimit:4;stroke-dasharray:none;stroke-opacity:1"
       id="path828-55-9"
       sodipodi:type="arc"
       sodipodi:cx="163.68767"
       sodipodi:cy="243.53915"
       sodipodi:rx="1.0857824"
       sodipodi:ry="1.0857824"
       sodipodi:start="0"
       sodipodi:end="6.2798343"
       sodipodi:open="true"
       d="m 164.77345,243.53915 a 1.0857824,1.0857824 0 0 1 -1.08487,1.08579 1.0857824,1.0857824 0 0 1 -1.08669,-1.08397 1.0857824,1.0857824 0 0 1 1.08305,-1.08759 1.0857824,1.0857824 0 0 1 1.0885,1.08214" />
    <path
       style="fill:none;stroke:#945a07;stroke-width:0.26458332px;stroke-linecap:butt;stroke-linejoin:miter;stroke-opacity:1"
       d="m 170.53847,235.48354 0.4961,-0.8032 h -0.0945 m -0.87406,0.82683 -0.42523,-0.82683"
       id="path967"
       inkscape:connector-curvature="0" />
  </g>
</svg>
