<?xml version="1.0" encoding="UTF-8" standalone="no"?>
<!-- Created with Inkscape (http://www.inkscape.org/) -->

<svg
   xmlns:dc="http://purl.org/dc/elements/1.1/"
   xmlns:cc="http://creativecommons.org/ns#"
   xmlns:rdf="http://www.w3.org/1999/02/22-rdf-syntax-ns#"
   xmlns:svg="http://www.w3.org/2000/svg"
   xmlns="http://www.w3.org/2000/svg"
   xmlns:sodipodi="http://sodipodi.sourceforge.net/DTD/sodipodi-0.dtd"
   xmlns:inkscape="http://www.inkscape.org/namespaces/inkscape"
   width="20.115002mm"
   height="19.887613mm"
   viewBox="0 0 20.115002 19.887613"
   version="1.1"
   id="svg8"
   inkscape:version="0.92.2 (5c3e80d, 2017-08-06)"
   sodipodi:docname="ed-goods-food.svg">
  <defs
     id="defs2" />
  <sodipodi:namedview
     id="base"
     pagecolor="#ffffff"
     bordercolor="#666666"
     borderopacity="1.0"
     inkscape:pageopacity="0.0"
     inkscape:pageshadow="2"
     inkscape:zoom="3.959798"
     inkscape:cx="-49.22085"
     inkscape:cy="27.600586"
     inkscape:document-units="mm"
     inkscape:current-layer="layer1"
     showgrid="false"
     fit-margin-top="0"
     fit-margin-left="0"
     fit-margin-right="0"
     fit-margin-bottom="0"
     inkscape:window-width="1920"
     inkscape:window-height="1018"
     inkscape:window-x="-8"
     inkscape:window-y="-8"
     inkscape:window-maximized="1"
     inkscape:pagecheckerboard="true" />
  <metadata
     id="metadata5">
    <rdf:RDF>
      <cc:Work
         rdf:about="">
        <dc:format>image/svg+xml</dc:format>
        <dc:type
           rdf:resource="http://purl.org/dc/dcmitype/StillImage" />
        <dc:title></dc:title>
      </cc:Work>
    </rdf:RDF>
  </metadata>
  <g
     inkscape:label="Layer 1"
     inkscape:groupmode="layer"
     id="layer1"
     transform="translate(-149.6043,-10.625647)">
    <rect
       style="fill:none;fill-opacity:1;stroke:#a46207;stroke-width:0.16158071;stroke-linejoin:round;stroke-miterlimit:4;stroke-dasharray:none;stroke-opacity:1"
       id="rect4705"
       width="19.953421"
       height="19.726032"
       x="149.68509"
       y="10.706437" />
    <path
       style="fill:#000000;fill-opacity:1;stroke:#a46207;stroke-width:0.26455238;stroke-linecap:butt;stroke-linejoin:round;stroke-miterlimit:4;stroke-dasharray:none;stroke-opacity:1"
       d="m 163.42982,16.395334 c -0.19028,-0.718228 0.34184,-1.502636 0.74147,-2.101342 l 1.06312,-0.821523 c 0.78339,-0.457603 1.84374,-0.462864 1.81033,-0.434151 2.3e-4,0.382894 -0.12299,0.872226 -0.26701,1.379152 -0.1263,0.363205 -0.27947,0.724396 -0.46022,1.083492 l -0.7061,0.852485 c -0.57979,0.350736 -1.31475,0.703287 -1.98582,0.476225 z"
       id="path3740-49-2-9-1-2-8-1"
       inkscape:connector-curvature="0"
       sodipodi:nodetypes="ccccccccc" />
    <path
       style="fill:none;stroke:#a46207;stroke-width:0.16002193;stroke-linecap:butt;stroke-linejoin:miter;stroke-miterlimit:4;stroke-dasharray:none;stroke-opacity:1"
       d="m 149.98507,29.755203 13.0558,-13.329133 0.56273,0.562749 -13.05578,13.104031"
       id="path3898"
       inkscape:connector-curvature="0" />
    <path
       style="fill:#000000;fill-opacity:1;stroke:#a46207;stroke-width:0.20814882;stroke-linecap:butt;stroke-linejoin:round;stroke-miterlimit:4;stroke-dasharray:none;stroke-opacity:1"
       d="m 162.95798,16.896855 c 0.52617,-0.254739 0.72143,-0.974503 0.87377,-1.519996 l -0.055,-1.055669 c -0.12867,-0.702133 -0.66919,-1.337593 -0.66919,-1.302933 -0.22867,0.196108 -0.45741,0.520696 -0.6861,0.866527 -0.15189,0.261686 -0.28897,0.538231 -0.41058,0.830234 l -0.14668,0.858489 c 0.0879,0.52584 0.2545,1.145211 0.73411,1.429238 z"
       id="path3740-20"
       inkscape:connector-curvature="0"
       sodipodi:nodetypes="ccccccccc" />
    <path
       style="fill:#000000;fill-opacity:1;stroke:#a46207;stroke-width:0.20814882;stroke-linecap:butt;stroke-linejoin:round;stroke-miterlimit:4;stroke-dasharray:none;stroke-opacity:1"
       d="m 161.65563,18.327846 c 0.52617,-0.254736 0.7214,-0.974502 0.87376,-1.519996 l -0.055,-1.055668 c -0.12867,-0.702131 -0.66922,-1.337594 -0.66922,-1.302934 -0.22867,0.196108 -0.45738,0.520696 -0.6861,0.866527 -0.15189,0.261687 -0.28897,0.538231 -0.41055,0.830234 l -0.14668,0.85849 c 0.0879,0.525842 0.25449,1.145213 0.7341,1.429238 z"
       id="path3740-36"
       inkscape:connector-curvature="0"
       sodipodi:nodetypes="ccccccccc" />
    <path
       style="fill:#000000;fill-opacity:1;stroke:#a46207;stroke-width:0.20814882;stroke-linecap:butt;stroke-linejoin:round;stroke-miterlimit:4;stroke-dasharray:none;stroke-opacity:1"
       d="m 160.36934,19.614131 c 0.52617,-0.254736 0.7214,-0.9745 0.87376,-1.519994 l -0.055,-1.055668 c -0.12867,-0.702134 -0.66922,-1.337596 -0.66922,-1.302936 -0.22867,0.196108 -0.45738,0.520698 -0.6861,0.866529 -0.15189,0.261685 -0.28897,0.538231 -0.41058,0.830232 l -0.14668,0.858489 c 0.0879,0.525843 0.2545,1.145214 0.73411,1.429238 z"
       id="path3740-6"
       inkscape:connector-curvature="0"
       sodipodi:nodetypes="ccccccccc" />
    <path
       style="fill:#000000;fill-opacity:1;stroke:#a46207;stroke-width:0.20814882;stroke-linecap:butt;stroke-linejoin:round;stroke-miterlimit:4;stroke-dasharray:none;stroke-opacity:1"
       d="m 159.17951,20.771789 c 0.5262,-0.254736 0.72143,-0.974502 0.87377,-1.519996 l -0.055,-1.055668 c -0.12867,-0.702134 -0.6692,-1.337594 -0.6692,-1.302936 -0.22867,0.196108 -0.45741,0.520698 -0.6861,0.866529 -0.15189,0.261685 -0.28897,0.538231 -0.41058,0.830234 l -0.14668,0.85849 c 0.0879,0.52584 0.2545,1.14521 0.73411,1.429238 z"
       id="path3740-3"
       inkscape:connector-curvature="0"
       sodipodi:nodetypes="ccccccccc" />
    <path
       style="fill:#000000;fill-opacity:1;stroke:#a46207;stroke-width:0.20814882;stroke-linecap:butt;stroke-linejoin:round;stroke-miterlimit:4;stroke-dasharray:none;stroke-opacity:1"
       d="m 157.79676,22.138468 c 0.52619,-0.25474 0.72142,-0.974503 0.87376,-1.519996 l -0.055,-1.055669 c -0.12867,-0.702133 -0.6692,-1.337594 -0.6692,-1.302933 -0.22867,0.196108 -0.4574,0.520695 -0.68609,0.866527 -0.15189,0.261684 -0.28898,0.53823 -0.41058,0.830234 L 156.703,20.81512 c 0.0879,0.52584 0.25449,1.145211 0.7341,1.429238 z"
       id="path3740-2"
       inkscape:connector-curvature="0"
       sodipodi:nodetypes="ccccccccc" />
    <path
       style="fill:#000000;fill-opacity:1;stroke:#a46207;stroke-width:0.20814882;stroke-linecap:butt;stroke-linejoin:round;stroke-miterlimit:4;stroke-dasharray:none;stroke-opacity:1"
       d="m 163.13419,17.167747 c 0.26082,-0.523181 0.98281,-0.71004 1.53005,-0.856036 l 1.05494,0.06715 c 0.7006,0.136774 1.32973,0.684712 1.29506,0.68431 -0.19881,0.226415 -0.52596,0.451316 -0.87443,0.67598 -0.26343,0.148858 -0.54155,0.2827 -0.83495,0.400898 l -0.86014,0.136679 c -0.52477,-0.09412 -1.14217,-0.267786 -1.4206,-0.750659 z"
       id="path3740-49-2-9-1-2-8"
       inkscape:connector-curvature="0"
       sodipodi:nodetypes="ccccccccc" />
    <path
       style="fill:#000000;fill-opacity:1;stroke:#a46207;stroke-width:0.20814882;stroke-linecap:butt;stroke-linejoin:round;stroke-miterlimit:4;stroke-dasharray:none;stroke-opacity:1"
       d="m 161.86399,18.486188 c 0.26082,-0.523179 0.98281,-0.710039 1.53002,-0.856037 l 1.05497,0.06715 c 0.7006,0.136774 1.32973,0.684713 1.29506,0.68431 -0.19881,0.226391 -0.52596,0.451316 -0.87443,0.67598 -0.26343,0.148858 -0.54155,0.282701 -0.83495,0.400899 l -0.86014,0.136678 c -0.52477,-0.09412 -1.14217,-0.267786 -1.4206,-0.750658 z"
       id="path3740-49-2-9-1-2"
       inkscape:connector-curvature="0"
       sodipodi:nodetypes="ccccccccc" />
    <path
       style="fill:#000000;fill-opacity:1;stroke:#a46207;stroke-width:0.20814882;stroke-linecap:butt;stroke-linejoin:round;stroke-miterlimit:4;stroke-dasharray:none;stroke-opacity:1"
       d="m 160.60985,19.80463 c 0.26082,-0.523179 0.98282,-0.710038 1.53003,-0.856036 l 1.05497,0.06715 c 0.70059,0.136773 1.32972,0.684712 1.29508,0.68431 -0.19881,0.226391 -0.52598,0.451314 -0.87445,0.67598 -0.26343,0.148858 -0.54155,0.2827 -0.83496,0.400898 l -0.86014,0.136679 c -0.52477,-0.09412 -1.14217,-0.267787 -1.4206,-0.750659 z"
       id="path3740-49-2-9-1"
       inkscape:connector-curvature="0"
       sodipodi:nodetypes="ccccccccc" />
    <path
       style="fill:#000000;fill-opacity:1;stroke:#a46207;stroke-width:0.20814882;stroke-linecap:butt;stroke-linejoin:round;stroke-miterlimit:4;stroke-dasharray:none;stroke-opacity:1"
       d="m 159.35572,21.010524 c 0.26082,-0.523181 0.98281,-0.710041 1.53005,-0.856036 l 1.05494,0.06715 c 0.7006,0.136773 1.32973,0.684712 1.29508,0.684309 -0.1988,0.226415 -0.52598,0.451316 -0.87445,0.675981 -0.26343,0.148858 -0.54155,0.2827 -0.83495,0.400898 l -0.86014,0.136678 c -0.52477,-0.09412 -1.14217,-0.267786 -1.4206,-0.750658 z"
       id="path3740-49-2-9"
       inkscape:connector-curvature="0"
       sodipodi:nodetypes="ccccccccc" />
    <path
       style="fill:#000000;fill-opacity:1;stroke:#a46207;stroke-width:0.20814882;stroke-linecap:butt;stroke-linejoin:round;stroke-miterlimit:4;stroke-dasharray:none;stroke-opacity:1"
       d="m 157.98903,22.328964 c 0.26084,-0.523178 0.98281,-0.710038 1.53005,-0.856034 l 1.05497,0.06715 c 0.70059,0.136774 1.32972,0.684713 1.29505,0.68431 -0.1988,0.226415 -0.52595,0.451316 -0.87443,0.67598 -0.26342,0.148859 -0.54157,0.282701 -0.83495,0.400901 l -0.86014,0.136678 c -0.52477,-0.09412 -1.14217,-0.267786 -1.42062,-0.750658 z"
       id="path3740-49-2-7"
       inkscape:connector-curvature="0"
       sodipodi:nodetypes="ccccccccc" />
    <path
       style="fill:#000000;fill-opacity:1;stroke:#a46207;stroke-width:0.20814882;stroke-linecap:butt;stroke-linejoin:round;stroke-miterlimit:4;stroke-dasharray:none;stroke-opacity:1"
       d="m 156.70276,23.583094 c 0.26082,-0.523179 0.98282,-0.710041 1.53003,-0.856035 l 1.05497,0.06715 c 0.70059,0.136773 1.32972,0.684712 1.29508,0.684309 -0.19881,0.226416 -0.52598,0.451317 -0.87445,0.675981 -0.26343,0.148858 -0.54155,0.282698 -0.83496,0.400898 l -0.86014,0.136679 c -0.52477,-0.09412 -1.14217,-0.267789 -1.4206,-0.750661 z"
       id="path3740-49-2"
       inkscape:connector-curvature="0"
       sodipodi:nodetypes="ccccccccc" />
    <path
       style="fill:#000000;fill-opacity:1;stroke:#a46207;stroke-width:0.20814882;stroke-linecap:butt;stroke-linejoin:round;stroke-miterlimit:4;stroke-dasharray:none;stroke-opacity:1"
       d="m 155.35709,24.816409 c 0.26085,-0.523179 0.98281,-0.710039 1.53005,-0.856037 l 1.05497,0.06715 c 0.70057,0.136774 1.32972,0.68471 1.29506,0.684305 -0.19881,0.226415 -0.52598,0.451319 -0.87443,0.675983 -0.26345,0.148858 -0.54157,0.2827 -0.83498,0.400898 l -0.86012,0.136678 c -0.52479,-0.09412 -1.14217,-0.267788 -1.42062,-0.750658 z"
       id="path3740-49"
       inkscape:connector-curvature="0"
       sodipodi:nodetypes="ccccccccc" />
    <path
       style="fill:#000000;fill-opacity:1;stroke:#a46207;stroke-width:0.20814882;stroke-linecap:butt;stroke-linejoin:round;stroke-miterlimit:4;stroke-dasharray:none;stroke-opacity:1"
       d="m 156.46225,23.424752 c 0.52617,-0.254736 0.7214,-0.974502 0.87376,-1.519996 l -0.055,-1.055668 c -0.12867,-0.702131 -0.6692,-1.337594 -0.6692,-1.302934 -0.22867,0.196109 -0.4574,0.520696 -0.68609,0.866527 -0.15189,0.261687 -0.289,0.538231 -0.41061,0.830235 l -0.14668,0.858489 c 0.0879,0.52584 0.2545,1.14521 0.73411,1.429238 z"
       id="path3740-4"
       inkscape:connector-curvature="0"
       sodipodi:nodetypes="ccccccccc" />
    <path
       style="fill:#000000;fill-opacity:1;stroke:#a46207;stroke-width:0.20814882;stroke-linecap:butt;stroke-linejoin:round;stroke-miterlimit:4;stroke-dasharray:none;stroke-opacity:1"
       d="m 155.22783,24.67747 c 0.52617,-0.254739 0.7214,-0.974505 0.87374,-1.519999 l -0.0547,-1.055668 c -0.12867,-0.702134 -0.66922,-1.337596 -0.66922,-1.302936 -0.22867,0.196108 -0.45738,0.520698 -0.68609,0.866529 -0.15189,0.261684 -0.28898,0.538231 -0.41058,0.830234 l -0.14668,0.858489 c 0.0879,0.525841 0.25449,1.145211 0.7341,1.429238 z"
       id="path3740"
       inkscape:connector-curvature="0"
       sodipodi:nodetypes="ccccccccc" />
  </g>
</svg>
