<?xml version="1.0" encoding="UTF-8" standalone="no"?>
<!-- Created with Inkscape (http://www.inkscape.org/) -->

<svg
   xmlns:dc="http://purl.org/dc/elements/1.1/"
   xmlns:cc="http://creativecommons.org/ns#"
   xmlns:rdf="http://www.w3.org/1999/02/22-rdf-syntax-ns#"
   xmlns:svg="http://www.w3.org/2000/svg"
   xmlns="http://www.w3.org/2000/svg"
   xmlns:sodipodi="http://sodipodi.sourceforge.net/DTD/sodipodi-0.dtd"
   xmlns:inkscape="http://www.inkscape.org/namespaces/inkscape"
   width="81.251915mm"
   height="81.629883mm"
   viewBox="0 0 81.251915 81.629883"
   version="1.1"
   id="svg8"
   inkscape:version="0.92.2 (5c3e80d, 2017-08-06)"
   sodipodi:docname="ed-goods-machinery.svg">
  <defs
     id="defs2" />
  <sodipodi:namedview
     id="base"
     pagecolor="#000000"
     bordercolor="#666666"
     borderopacity="1.0"
     inkscape:pageopacity="0"
     inkscape:pageshadow="2"
     inkscape:zoom="0.7"
     inkscape:cx="32.00838"
     inkscape:cy="104.95796"
     inkscape:document-units="mm"
     inkscape:current-layer="layer1"
     showgrid="false"
     inkscape:window-width="1920"
     inkscape:window-height="1018"
     inkscape:window-x="-8"
     inkscape:window-y="-8"
     inkscape:window-maximized="1"
     fit-margin-top="0"
     fit-margin-left="0"
     fit-margin-right="0"
     fit-margin-bottom="0" />
  <metadata
     id="metadata5">
    <rdf:RDF>
      <cc:Work
         rdf:about="">
        <dc:format>image/svg+xml</dc:format>
        <dc:type
           rdf:resource="http://purl.org/dc/dcmitype/StillImage" />
        <dc:title></dc:title>
      </cc:Work>
    </rdf:RDF>
  </metadata>
  <g
     inkscape:label="Layer 1"
     inkscape:groupmode="layer"
     id="layer1"
     transform="translate(-102.6041,-172.47283)">
    <rect
       style="opacity:0.97000002;fill:none;fill-opacity:1;stroke:#945a07;stroke-width:0.36500001;stroke-linejoin:round;stroke-miterlimit:4;stroke-dasharray:none;stroke-opacity:1"
       id="rect826"
       width="80.886917"
       height="81.264885"
       x="102.7866"
       y="172.65533" />
    <path
       style="opacity:0.97000002;fill:none;fill-opacity:1;stroke:#945a07;stroke-width:0.62;stroke-linejoin:round;stroke-miterlimit:4;stroke-dasharray:none;stroke-opacity:1"
       id="path828"
       sodipodi:type="arc"
       sodipodi:cx="142.99014"
       sodipodi:cy="213.53134"
       sodipodi:rx="21.403894"
       sodipodi:ry="21.403894"
       sodipodi:start="0"
       sodipodi:end="6.2798343"
       sodipodi:open="true"
       d="m 164.39404,213.53134 a 21.403894,21.403894 0 0 1 -21.38597,21.40389 21.403894,21.403894 0 0 1 -21.42179,-21.36803 21.403894,21.403894 0 0 1 21.35007,-21.43969 21.403894,21.403894 0 0 1 21.45757,21.33211" />
    <path
       style="fill:none;stroke:#925a07;stroke-width:1.26499999;stroke-linecap:butt;stroke-linejoin:miter;stroke-miterlimit:4;stroke-dasharray:none;stroke-opacity:1"
       d="m 167.44531,220.7476 h 5.74629 v -14.43256 h -6.01356 l -1.87089,-4.87767 4.07586,-4.14267 -10.15624,-10.15625 -4.07586,4.07586 -4.81085,-1.67043 -0.13363,-6.34765 h -14.56619 v 6.28083 l -5.21176,1.73725 -4.00904,-4.00904 -10.02261,10.02261 4.14267,3.8754 -1.53679,5.21176 h -6.48129 l 0.0668,14.63301 6.41447,0.13364 1.46998,4.74403 -4.00904,4.6104 9.95579,9.95579 4.67722,-4.67722 4.40994,2.27179 v 6.1472 h 14.9671 v -6.01356 l 4.67721,-2.2718 4.07586,4.07586 9.88898,-9.88897 -3.87541,-3.87541 z"
       id="path830"
       inkscape:connector-curvature="0"
       sodipodi:nodetypes="ccccccccccccccccccccccccccccccccc" />
    <path
       style="opacity:0.97000002;fill:none;fill-opacity:1;stroke:#925a07;stroke-width:1.49399996;stroke-linejoin:round;stroke-miterlimit:4;stroke-dasharray:none;stroke-opacity:1"
       id="path828-1"
       sodipodi:type="arc"
       sodipodi:cx="142.87498"
       sodipodi:cy="213.39639"
       sodipodi:rx="6.2799039"
       sodipodi:ry="6.2799039"
       sodipodi:start="0"
       sodipodi:end="6.2798343"
       sodipodi:open="true"
       d="m 149.15489,213.39639 a 6.2799039,6.2799039 0 0 1 -6.27464,6.2799 6.2799039,6.2799039 0 0 1 -6.28516,-6.26938 6.2799039,6.2799039 0 0 1 6.26411,-6.2904 6.2799039,6.2799039 0 0 1 6.29565,6.25884" />
    <path
       style="opacity:0.97000002;fill:none;fill-opacity:1;stroke:#925a07;stroke-width:0.84799999;stroke-linejoin:round;stroke-miterlimit:4;stroke-dasharray:none;stroke-opacity:1"
       id="path828-1-2"
       sodipodi:type="arc"
       sodipodi:cx="142.87498"
       sodipodi:cy="213.37279"
       sodipodi:rx="9.8909025"
       sodipodi:ry="9.8909025"
       sodipodi:start="0"
       sodipodi:end="6.2798343"
       sodipodi:open="true"
       d="m 152.76589,213.37279 a 9.8909025,9.8909025 0 0 1 -9.88262,9.8909 9.8909025,9.8909025 0 0 1 -9.89917,-9.87433 9.8909025,9.8909025 0 0 1 9.86603,-9.90744 9.8909025,9.8909025 0 0 1 9.9157,9.85772" />
  </g>
</svg>
