<?xml version="1.0" encoding="UTF-8" standalone="no"?>
<!-- Created with Inkscape (http://www.inkscape.org/) -->

<svg
   xmlns:dc="http://purl.org/dc/elements/1.1/"
   xmlns:cc="http://creativecommons.org/ns#"
   xmlns:rdf="http://www.w3.org/1999/02/22-rdf-syntax-ns#"
   xmlns:svg="http://www.w3.org/2000/svg"
   xmlns="http://www.w3.org/2000/svg"
   xmlns:sodipodi="http://sodipodi.sourceforge.net/DTD/sodipodi-0.dtd"
   xmlns:inkscape="http://www.inkscape.org/namespaces/inkscape"
   width="20.483917mm"
   height="20.464838mm"
   viewBox="0 0 20.483917 20.464838"
   version="1.1"
   id="svg8"
   inkscape:version="0.92.2 (5c3e80d, 2017-08-06)"
   sodipodi:docname="ed-goods-technology.svg">
  <defs
     id="defs2" />
  <sodipodi:namedview
     id="base"
     pagecolor="#ffffff"
     bordercolor="#666666"
     borderopacity="1.0"
     inkscape:pageopacity="0.0"
     inkscape:pageshadow="2"
     inkscape:zoom="3.959798"
     inkscape:cx="-20.94399"
     inkscape:cy="22.894215"
     inkscape:document-units="mm"
     inkscape:current-layer="layer1"
     showgrid="false"
     inkscape:window-width="1920"
     inkscape:window-height="1018"
     inkscape:window-x="-8"
     inkscape:window-y="-8"
     inkscape:window-maximized="1"
     fit-margin-top="0"
     fit-margin-left="0"
     fit-margin-right="0"
     fit-margin-bottom="0"
     inkscape:pagecheckerboard="true" />
  <metadata
     id="metadata5">
    <rdf:RDF>
      <cc:Work
         rdf:about="">
        <dc:format>image/svg+xml</dc:format>
        <dc:type
           rdf:resource="http://purl.org/dc/dcmitype/StillImage" />
        <dc:title></dc:title>
      </cc:Work>
    </rdf:RDF>
  </metadata>
  <g
     inkscape:label="Layer 1"
     inkscape:groupmode="layer"
     id="layer1"
     transform="translate(-163.68,-211.54239)">
    <rect
       style="opacity:0.97000002;fill:none;fill-opacity:1;stroke:#9a5c09;stroke-width:0.378;stroke-linejoin:round;stroke-miterlimit:4;stroke-dasharray:none;stroke-opacity:0.97254902"
       id="rect826"
       width="20.306158"
       height="20.287079"
       x="163.76888"
       y="211.63127" />
    <text
       xml:space="preserve"
       style="font-style:normal;font-weight:normal;font-size:10.58333302px;line-height:1.25;font-family:sans-serif;letter-spacing:0px;word-spacing:0px;fill:#000000;fill-opacity:1;stroke:none;stroke-width:0.26458332"
       x="142.85556"
       y="242.61064"
       id="text830"><tspan
         sodipodi:role="line"
         id="tspan828"
         x="142.85556"
         y="251.97441"
         style="stroke-width:0.26458332" /></text>
    <path
       inkscape:connector-curvature="0"
       id="path828"
       style="font-style:normal;font-variant:normal;font-weight:normal;font-stretch:normal;font-size:medium;line-height:1.25;font-family:Telegrama;-inkscape-font-specification:Telegrama;letter-spacing:0px;word-spacing:0px;fill:#985a09;fill-opacity:1;stroke:none;stroke-width:0.2;stroke-miterlimit:4;stroke-dasharray:none"
       d="m 166.94068,222.81663 q 0,0.1867 -0.0731,0.3531 -0.069,0.16235 -0.19075,0.28411 -0.12176,0.12176 -0.28817,0.19481 -0.16234,0.069 -0.34904,0.069 h -0.45051 q -0.1867,0 -0.3531,-0.069 -0.16235,-0.073 -0.28411,-0.19481 -0.12176,-0.12176 -0.19481,-0.28411 -0.069,-0.1664 -0.069,-0.3531 v -1.35559 q 0,-0.18669 0.069,-0.34904 0.0731,-0.16641 0.19481,-0.28816 0.12176,-0.12176 0.28411,-0.19076 0.1664,-0.0731 0.3531,-0.0731 h 0.45051 q 0.1867,0 0.34904,0.0731 0.16641,0.069 0.28817,0.19076 0.12176,0.12175 0.19075,0.28816 0.0731,0.16235 0.0731,0.34904 z m -0.52357,-1.59911 q -0.0609,-0.0933 -0.16234,-0.15017 -0.0974,-0.0568 -0.21511,-0.0568 h -0.45051 q -0.0933,0 -0.17452,0.0365 -0.0812,0.0365 -0.14205,0.0974 -0.0609,0.0609 -0.0974,0.14205 -0.0365,0.0812 -0.0365,0.17452 v 1.03496 z m 0.0731,0.5601 -1.28253,1.28253 q 0.0609,0.0934 0.16234,0.15017 0.10147,0.0568 0.21917,0.0568 h 0.45051 q 0.0934,0 0.17452,-0.0365 0.0812,-0.0365 0.14205,-0.0974 0.0609,-0.0609 0.0974,-0.14206 0.0365,-0.0812 0.0365,-0.17452 z" />
    <path
       inkscape:connector-curvature="0"
       id="path830"
       style="font-style:normal;font-variant:normal;font-weight:normal;font-stretch:normal;font-size:medium;line-height:1.25;font-family:Telegrama;-inkscape-font-specification:Telegrama;letter-spacing:0px;word-spacing:0px;fill:#985a09;fill-opacity:1;stroke:none;stroke-width:0.10146619"
       d="m 169.65173,223.60401 q 0,0.0487 -0.0325,0.0812 -0.0325,0.0325 -0.0812,0.0325 h -2.02933 q -0.0446,0 -0.0771,-0.0325 -0.0325,-0.0325 -0.0325,-0.0812 v -0.22323 q 0,-0.0487 0.0325,-0.0812 0.0325,-0.0325 0.0771,-0.0325 h 0.79144 v -1.94003 l -0.55603,0.55603 q -0.0325,0.0325 -0.0812,0.0325 -0.0446,0 -0.0771,-0.0325 l -0.15829,-0.15828 q -0.0325,-0.0325 -0.0325,-0.0771 0,-0.0487 0.0325,-0.0812 l 0.87261,-0.86855 v -0.0203 q 0,-0.0528 0.0325,-0.0852 0.0325,-0.0325 0.0812,-0.0325 h 0.22323 q 0.0487,0 0.0812,0.0325 0.0325,0.0325 0.0325,0.0812 v 2.59347 h 0.78738 q 0.0487,0 0.0812,0.0325 0.0325,0.0325 0.0325,0.0812 v 0.22323 z" />
    <path
       inkscape:connector-curvature="0"
       id="path832"
       style="font-style:normal;font-variant:normal;font-weight:normal;font-stretch:normal;font-size:medium;line-height:1.25;font-family:Telegrama;-inkscape-font-specification:Telegrama;letter-spacing:0px;word-spacing:0px;fill:#985a09;fill-opacity:1;stroke:none;stroke-width:0.10146619"
       d="m 172.36278,222.81663 q 0,0.1867 -0.0731,0.3531 -0.069,0.16235 -0.19075,0.28411 -0.12176,0.12176 -0.28817,0.19481 -0.16234,0.069 -0.34904,0.069 h -0.45051 q -0.1867,0 -0.3531,-0.069 -0.16235,-0.073 -0.28411,-0.19481 -0.12176,-0.12176 -0.19481,-0.28411 -0.069,-0.1664 -0.069,-0.3531 v -1.35559 q 0,-0.18669 0.069,-0.34904 0.0731,-0.16641 0.19481,-0.28816 0.12176,-0.12176 0.28411,-0.19076 0.1664,-0.0731 0.3531,-0.0731 h 0.45051 q 0.1867,0 0.34904,0.0731 0.16641,0.069 0.28817,0.19076 0.12176,0.12175 0.19075,0.28816 0.0731,0.16235 0.0731,0.34904 z m -0.52357,-1.59911 q -0.0609,-0.0933 -0.16234,-0.15017 -0.0974,-0.0568 -0.21511,-0.0568 h -0.45051 q -0.0933,0 -0.17452,0.0365 -0.0812,0.0365 -0.14205,0.0974 -0.0609,0.0609 -0.0974,0.14205 -0.0365,0.0812 -0.0365,0.17452 v 1.03496 z m 0.0731,0.5601 -1.28253,1.28253 q 0.0609,0.0934 0.16234,0.15017 0.10147,0.0568 0.21917,0.0568 h 0.45051 q 0.0934,0 0.17452,-0.0365 0.0812,-0.0365 0.14205,-0.0974 0.0609,-0.0609 0.0974,-0.14206 0.0365,-0.0812 0.0365,-0.17452 z" />
    <path
       inkscape:connector-curvature="0"
       id="path834"
       style="font-style:normal;font-variant:normal;font-weight:normal;font-stretch:normal;font-size:medium;line-height:1.25;font-family:Telegrama;-inkscape-font-specification:Telegrama;letter-spacing:0px;word-spacing:0px;fill:#985a09;fill-opacity:1;stroke:none;stroke-width:0.10146619"
       d="m 175.07383,222.81663 q 0,0.1867 -0.0731,0.3531 -0.069,0.16235 -0.19075,0.28411 -0.12176,0.12176 -0.28817,0.19481 -0.16234,0.069 -0.34904,0.069 h -0.45051 q -0.1867,0 -0.3531,-0.069 -0.16235,-0.073 -0.28411,-0.19481 -0.12176,-0.12176 -0.19481,-0.28411 -0.069,-0.1664 -0.069,-0.3531 v -1.35559 q 0,-0.18669 0.069,-0.34904 0.0731,-0.16641 0.19481,-0.28816 0.12176,-0.12176 0.28411,-0.19076 0.1664,-0.0731 0.3531,-0.0731 h 0.45051 q 0.1867,0 0.34904,0.0731 0.16641,0.069 0.28817,0.19076 0.12176,0.12175 0.19075,0.28816 0.0731,0.16235 0.0731,0.34904 z m -0.52357,-1.59911 q -0.0609,-0.0933 -0.16234,-0.15017 -0.0974,-0.0568 -0.21511,-0.0568 h -0.45051 q -0.0933,0 -0.17452,0.0365 -0.0812,0.0365 -0.14205,0.0974 -0.0609,0.0609 -0.0974,0.14205 -0.0365,0.0812 -0.0365,0.17452 v 1.03496 z m 0.0731,0.5601 -1.28253,1.28253 q 0.0609,0.0934 0.16234,0.15017 0.10147,0.0568 0.21917,0.0568 h 0.45051 q 0.0934,0 0.17452,-0.0365 0.0812,-0.0365 0.14205,-0.0974 0.0609,-0.0609 0.0974,-0.14206 0.0365,-0.0812 0.0365,-0.17452 z" />
    <path
       inkscape:connector-curvature="0"
       id="path836"
       style="font-style:normal;font-variant:normal;font-weight:normal;font-stretch:normal;font-size:medium;line-height:1.25;font-family:Telegrama;-inkscape-font-specification:Telegrama;letter-spacing:0px;word-spacing:0px;fill:#985a09;fill-opacity:1;stroke:none;stroke-width:0.10146619"
       d="m 177.78488,223.60401 q 0,0.0487 -0.0325,0.0812 -0.0325,0.0325 -0.0812,0.0325 h -2.02933 q -0.0446,0 -0.0771,-0.0325 -0.0325,-0.0325 -0.0325,-0.0812 v -0.22323 q 0,-0.0487 0.0325,-0.0812 0.0325,-0.0325 0.0771,-0.0325 h 0.79144 v -1.94003 l -0.55603,0.55603 q -0.0325,0.0325 -0.0812,0.0325 -0.0446,0 -0.0771,-0.0325 l -0.15829,-0.15828 q -0.0325,-0.0325 -0.0325,-0.0771 0,-0.0487 0.0325,-0.0812 l 0.87261,-0.86855 v -0.0203 q 0,-0.0528 0.0325,-0.0852 0.0325,-0.0325 0.0812,-0.0325 h 0.22323 q 0.0487,0 0.0812,0.0325 0.0325,0.0325 0.0325,0.0812 v 2.59347 h 0.78738 q 0.0487,0 0.0812,0.0325 0.0325,0.0325 0.0325,0.0812 v 0.22323 z" />
    <path
       inkscape:connector-curvature="0"
       id="path838"
       style="font-style:normal;font-variant:normal;font-weight:normal;font-stretch:normal;font-size:medium;line-height:1.25;font-family:Telegrama;-inkscape-font-specification:Telegrama;letter-spacing:0px;word-spacing:0px;fill:#985a09;fill-opacity:1;stroke:none;stroke-width:0.10146619"
       d="m 180.49593,222.81663 q 0,0.1867 -0.0731,0.3531 -0.069,0.16235 -0.19075,0.28411 -0.12176,0.12176 -0.28817,0.19481 -0.16234,0.069 -0.34904,0.069 h -0.45051 q -0.1867,0 -0.3531,-0.069 -0.16235,-0.073 -0.28411,-0.19481 -0.12176,-0.12176 -0.19481,-0.28411 -0.069,-0.1664 -0.069,-0.3531 v -1.35559 q 0,-0.18669 0.069,-0.34904 0.0731,-0.16641 0.19481,-0.28816 0.12176,-0.12176 0.28411,-0.19076 0.1664,-0.0731 0.3531,-0.0731 h 0.45051 q 0.1867,0 0.34904,0.0731 0.16641,0.069 0.28817,0.19076 0.12176,0.12175 0.19075,0.28816 0.0731,0.16235 0.0731,0.34904 z m -0.52357,-1.59911 q -0.0609,-0.0933 -0.16234,-0.15017 -0.0974,-0.0568 -0.21511,-0.0568 h -0.45051 q -0.0933,0 -0.17452,0.0365 -0.0812,0.0365 -0.14205,0.0974 -0.0609,0.0609 -0.0974,0.14205 -0.0365,0.0812 -0.0365,0.17452 v 1.03496 z m 0.0731,0.5601 -1.28253,1.28253 q 0.0609,0.0934 0.16234,0.15017 0.10147,0.0568 0.21917,0.0568 h 0.45051 q 0.0934,0 0.17452,-0.0365 0.0812,-0.0365 0.14205,-0.0974 0.0609,-0.0609 0.0974,-0.14206 0.0365,-0.0812 0.0365,-0.17452 z" />
    <path
       inkscape:connector-curvature="0"
       id="path840"
       style="font-style:normal;font-variant:normal;font-weight:normal;font-stretch:normal;font-size:medium;line-height:1.25;font-family:Telegrama;-inkscape-font-specification:Telegrama;letter-spacing:0px;word-spacing:0px;fill:#985a09;fill-opacity:1;stroke:none;stroke-width:0.10146619"
       d="m 183.20698,223.60401 q 0,0.0487 -0.0325,0.0812 -0.0325,0.0325 -0.0812,0.0325 h -2.02933 q -0.0446,0 -0.0771,-0.0325 -0.0325,-0.0325 -0.0325,-0.0812 v -0.22323 q 0,-0.0487 0.0325,-0.0812 0.0325,-0.0325 0.0771,-0.0325 h 0.79144 v -1.94003 l -0.55603,0.55603 q -0.0325,0.0325 -0.0812,0.0325 -0.0446,0 -0.0771,-0.0325 l -0.15829,-0.15828 q -0.0325,-0.0325 -0.0325,-0.0771 0,-0.0487 0.0325,-0.0812 l 0.87261,-0.86855 v -0.0203 q 0,-0.0528 0.0325,-0.0852 0.0325,-0.0325 0.0812,-0.0325 h 0.22323 q 0.0487,0 0.0812,0.0325 0.0325,0.0325 0.0325,0.0812 v 2.59347 h 0.78738 q 0.0487,0 0.0812,0.0325 0.0325,0.0325 0.0325,0.0812 v 0.22323 z" />
  </g>
</svg>
