<?xml version="1.0" encoding="UTF-8" standalone="no"?>
<!-- Created with Inkscape (http://www.inkscape.org/) -->

<svg
   xmlns:dc="http://purl.org/dc/elements/1.1/"
   xmlns:cc="http://creativecommons.org/ns#"
   xmlns:rdf="http://www.w3.org/1999/02/22-rdf-syntax-ns#"
   xmlns:svg="http://www.w3.org/2000/svg"
   xmlns="http://www.w3.org/2000/svg"
   xmlns:sodipodi="http://sodipodi.sourceforge.net/DTD/sodipodi-0.dtd"
   xmlns:inkscape="http://www.inkscape.org/namespaces/inkscape"
   width="20.664972mm"
   height="20.85396mm"
   viewBox="0 0 20.664972 20.85396"
   version="1.1"
   id="svg8"
   inkscape:version="0.92.2 (5c3e80d, 2017-08-06)"
   sodipodi:docname="ed-goods-waste.svg">
  <defs
     id="defs2" />
  <sodipodi:namedview
     id="base"
     pagecolor="#000000"
     bordercolor="#666666"
     borderopacity="1.0"
     inkscape:pageopacity="0"
     inkscape:pageshadow="2"
     inkscape:zoom="1.979899"
     inkscape:cx="202.93446"
     inkscape:cy="52.857752"
     inkscape:document-units="mm"
     inkscape:current-layer="layer1"
     showgrid="false"
     inkscape:window-width="1920"
     inkscape:window-height="1018"
     inkscape:window-x="-8"
     inkscape:window-y="-8"
     inkscape:window-maximized="1"
     fit-margin-top="0"
     fit-margin-left="0"
     fit-margin-right="0"
     fit-margin-bottom="0" />
  <metadata
     id="metadata5">
    <rdf:RDF>
      <cc:Work
         rdf:about="">
        <dc:format>image/svg+xml</dc:format>
        <dc:type
           rdf:resource="http://purl.org/dc/dcmitype/StillImage" />
        <dc:title></dc:title>
      </cc:Work>
    </rdf:RDF>
  </metadata>
  <g
     inkscape:label="Layer 1"
     inkscape:groupmode="layer"
     id="layer1"
     transform="translate(-165.68631,-233.63273)">
    <path
       style="fill:none;stroke:#a86408;stroke-width:0.1;stroke-linecap:butt;stroke-linejoin:miter;stroke-miterlimit:4;stroke-dasharray:none;stroke-opacity:0.97254902"
       d="m 173.22406,241.92577 c 1.77207,-1.70067 3.60675,-1.77352 5.51244,0"
       id="path860"
       inkscape:connector-curvature="0"
       sodipodi:nodetypes="cc" />
    <path
       style="fill:none;stroke:#a86408;stroke-width:0.1;stroke-linecap:butt;stroke-linejoin:miter;stroke-miterlimit:4;stroke-dasharray:none;stroke-opacity:0.97254902"
       d="m 179.72205,243.5628 c 0.40619,1.71609 0.13493,3.86769 -2.85644,4.89437"
       id="path862"
       inkscape:connector-curvature="0"
       sodipodi:nodetypes="cc" />
    <path
       style="fill:none;stroke:#a86408;stroke-width:0.1;stroke-linecap:butt;stroke-linejoin:miter;stroke-miterlimit:4;stroke-dasharray:none;stroke-opacity:0.97254902"
       d="m 172.2552,243.5795 c -0.6309,2.72484 0.86873,4.14548 2.656,4.82756"
       id="path864"
       inkscape:connector-curvature="0"
       sodipodi:nodetypes="cc" />
    <rect
       style="opacity:0.97000002;fill:none;fill-opacity:1;stroke:#a86408;stroke-width:0.396;stroke-linejoin:round;stroke-miterlimit:4;stroke-dasharray:none;stroke-opacity:1"
       id="rect826"
       width="20.268972"
       height="20.45796"
       x="165.88431"
       y="233.83073" />
    <path
       style="fill:none;stroke:#a86408;stroke-width:0.25;stroke-linecap:butt;stroke-linejoin:miter;stroke-miterlimit:4;stroke-dasharray:none;stroke-opacity:0.97254902"
       d="m 176.448,243.41245 c 2.87768,-0.63074 5.08734,-4.90465 0.63477,-7.29979 1.32021,0.7347 4.16768,1.78078 3.79188,5.81311 3.31631,1.76827 3.34046,3.89577 2.92326,6.1472 0.65472,-2.94667 -3.14696,-6.67352 -6.53139,-3.0569 0.0509,-0.80819 -0.28896,-1.27251 -0.81852,-1.60362 z"
       id="path828"
       inkscape:connector-curvature="0"
       sodipodi:nodetypes="cccccc" />
    <path
       style="fill:none;stroke:#a86408;stroke-width:0.25;stroke-linecap:butt;stroke-linejoin:miter;stroke-miterlimit:4;stroke-dasharray:none;stroke-opacity:0.97254902"
       d="m 175.52353,243.41234 c -2.87768,-0.63074 -5.08734,-4.90465 -0.63477,-7.29979 -1.32021,0.7347 -4.16768,1.78078 -3.79188,5.81311 -3.31631,1.76827 -3.34046,3.89577 -2.92326,6.1472 -0.65472,-2.94667 3.14696,-6.67352 6.53139,-3.0569 -0.0509,-0.80819 0.28896,-1.27251 0.81852,-1.60362 z"
       id="path828-4"
       inkscape:connector-curvature="0"
       sodipodi:nodetypes="cccccc" />
    <path
       style="fill:none;stroke:#a86408;stroke-width:0.25;stroke-linecap:butt;stroke-linejoin:miter;stroke-miterlimit:4;stroke-dasharray:none;stroke-opacity:0.97254902"
       d="m 175.11309,245.60292 c 0.83587,2.82492 -1.84169,6.82237 -6.0878,4.0778 1.28048,0.80194 3.57052,2.79143 6.92123,0.51685 3.14883,2.05173 5.024,1.04647 6.7948,-0.40517 -2.26518,1.99511 -7.36374,0.46315 -5.82869,-4.24619 -0.68335,0.4345 -1.25403,0.36082 -1.79954,0.0567 z"
       id="path828-4-2"
       inkscape:connector-curvature="0"
       sodipodi:nodetypes="cccccc" />
  </g>
</svg>
